<?xml version="1.0" standalone="no"?>
<!DOCTYPE svg PUBLIC "-//W3C//DTD SVG 20010904//EN"
 "http://www.w3.org/TR/2001/REC-SVG-20010904/DTD/svg10.dtd">
<svg version="1.0" xmlns="http://www.w3.org/2000/svg"
 width="1280.000000pt" height="1280.000000pt" viewBox="0 0 1280.000000 1280.000000"
 preserveAspectRatio="xMidYMid meet">
<g transform="translate(0.000000,1280.000000) scale(0.100000,-0.100000)"
fill="#000000" stroke="none">
<path d="M2269 12796 c-2 -2 -67 -11 -144 -20 -576 -67 -1030 -293 -1445 -722
-394 -407 -590 -825 -662 -1414 -19 -154 -19 -8326 0 -8480 72 -592 269 -1010
667 -1419 415 -426 852 -644 1440 -718 132 -17 379 -18 4275 -18 3896 0 4143
1 4275 18 589 74 1030 295 1445 723 387 399 586 818 657 1379 17 132 18 379
18 4275 0 3896 -1 4143 -18 4275 -71 561 -270 980 -657 1379 -356 367 -749
590 -1212 686 -280 58 43 54 -4489 57 -2280 2 -4147 1 -4150 -1z m846 -2146
c482 -55 831 -379 905 -842 20 -123 8 -333 -24 -442 -141 -470 -578 -750
-1131 -723 -360 17 -639 159 -833 421 -248 337 -243 855 13 1185 234 304 627
451 1070 401z m5830 -2660 c608 -81 1097 -367 1438 -841 79 -110 221 -391 270
-534 69 -202 111 -382 149 -646 l22 -154 3 -1864 c3 -1507 1 -1866 -9 -1873
-7 -4 -438 -8 -959 -8 -722 0 -948 3 -957 12 -9 9 -12 383 -12 1623 0 1606 -2
1721 -35 1920 -49 292 -174 536 -343 671 -72 57 -195 117 -298 146 -69 19
-105 22 -274 22 -173 1 -204 -2 -278 -22 -101 -27 -191 -67 -269 -119 -80 -53
-225 -193 -293 -284 -72 -97 -153 -255 -173 -339 -34 -138 -37 -294 -37 -1961
0 -1502 -1 -1657 -16 -1663 -23 -9 -1897 -7 -1910 2 -15 9 -14 5783 1 5794 12
9 1886 11 1909 2 14 -5 16 -49 16 -390 0 -211 4 -384 9 -384 4 0 24 24 43 53
98 147 275 337 422 452 282 220 629 356 1006 394 113 11 461 6 575 -9z m-5047
-122 c17 -17 17 -5769 0 -5786 -9 -9 -235 -12 -954 -12 -518 0 -949 3 -958 6
-15 6 -16 270 -16 2899 0 2305 3 2894 13 2898 6 3 437 6 958 6 722 1 948 -2
957 -11z"/>
</g>
</svg>
